# xmcd
#
# Track frame offsets: 
#        150
#        10520
#        29192
#        49885
#        64315
#        77317
#        97130
#        115105
#        133692
#        151357
#        163952
#        173585
#        186617
#        202277
#        227495
#        235097
#        244922
#        257847
#        280010
#        294220
#        302087
#        315347
#
# Disc length: 4342 seconds
#
# Revision: 2
# Processed by: cddbd v1.4PL0 Copyright (c) Steve Scherf et al.
# Submitted via: ExactAudioCopy v0.90b3
#
DISCID=3510f416
DTITLE=Ian McNamara - Macca-On-Air CD1
DYEAR=1996
DGENRE=Folk
TTITLE0=Digger Revell - Australia All Over
TTITLE1=Ian McNamara - We The People
TTITLE2=Penny Davies and Roger Ilott - Beside A Railway Line
TTITLE3=Neil Adam - Pickers' Train
TTITLE4=David Berman - Picker's Train
TTITLE5=Waratah Girls Choir - I Am Australian
TTITLE6=Dennis Rose - Yarrabah
TTITLE7=Jim Low - Bogan Gate
TTITLE8=Barry Skipsey - End Of The Bitumen
TTITLE9=Digger Revell - Worlds Gone Crazy Cotillion
TTITLE10=Drew Forsythe - Macca On A Sunday Morning
TTITLE11=Ian McNamara and Andra Muhoberac - Just One Time
TTITLE12=Making Whoopee - In The Suburbs
TTITLE13=Tex Morton - The Travelling Showman
TTITLE14=Dermot Dorgan - Cockroach Rap
TTITLE15=Bill Eckelschot - A Dutchman's Lament
TTITLE16=Ian McNamara and The Burgundian Consort - Bundaberg Rum
TTITLE17=Gary Shearston - Shopping On A Saturday
TTITLE18=Neil Murray - Menindee
TTITLE19=Woden Valley South Choir - Port Augusta School Of The Air Son
TTITLE19=g
TTITLE20=Ian McNamara - Read Me Little Book
TTITLE21=Mary Schneider - Silver Bell Yodel
EXTD=
EXTT0=
EXTT1=
EXTT2=
EXTT3=
EXTT4=
EXTT5=
EXTT6=
EXTT7=
EXTT8=
EXTT9=
EXTT10=
EXTT11=
EXTT12=
EXTT13=
EXTT14=
EXTT15=
EXTT16=
EXTT17=
EXTT18=
EXTT19=
EXTT20=
EXTT21=
PLAYORDER=
